<?xml version="1.0" standalone="no"?>
<!DOCTYPE svg PUBLIC "-//W3C//DTD SVG 20010904//EN"
 "http://www.w3.org/TR/2001/REC-SVG-20010904/DTD/svg10.dtd">
<svg version="1.0" xmlns="http://www.w3.org/2000/svg"
 width="1589.000000pt" height="1421.000000pt" viewBox="0 0 1589.000000 1421.000000"
 preserveAspectRatio="xMidYMid meet">

<g transform="translate(0.000000,1421.000000) scale(0.100000,-0.100000)"
fill="#000000" stroke="none">
<path d="M8065 13416 c-181 -42 -387 -163 -705 -415 -571 -454 -763 -561
-1111 -623 -136 -24 -360 -28 -1039 -18 -276 4 -327 2 -415 -14 -242 -44 -373
-125 -490 -301 -99 -148 -154 -293 -270 -702 -173 -610 -263 -816 -458 -1043
-127 -148 -267 -259 -645 -512 -423 -282 -543 -377 -655 -518 -104 -130 -147
-248 -147 -405 0 -170 41 -325 210 -785 164 -446 209 -612 232 -851 26 -283
-26 -539 -214 -1049 -187 -506 -228 -658 -228 -836 0 -156 43 -274 147 -404
112 -141 232 -235 655 -519 317 -211 452 -314 573 -435 98 -98 163 -182 225
-290 108 -187 169 -353 296 -799 126 -443 179 -582 279 -732 117 -176 250
-257 495 -302 82 -15 139 -17 410 -13 173 3 450 5 615 4 342 0 459 -14 654
-80 232 -77 413 -193 881 -565 279 -221 463 -335 637 -396 69 -24 93 -27 203
-27 110 0 134 3 203 27 174 61 358 175 637 396 468 372 649 488 881 565 195
66 312 80 654 80 165 1 442 -1 615 -4 271 -4 328 -2 410 13 245 45 378 126
495 302 99 148 154 293 270 702 156 552 240 757 393 963 134 179 298 316 710
591 423 284 543 378 655 519 202 253 198 478 -20 1070 -234 637 -276 804 -276
1095 0 291 42 458 276 1095 122 332 167 510 167 666 0 156 -43 274 -147 404
-112 141 -234 237 -671 529 -150 100 -318 219 -375 263 -246 195 -395 388
-510 660 -58 136 -110 295 -202 621 -116 409 -171 554 -270 702 -117 176 -250
257 -495 302 -82 15 -139 17 -410 13 -677 -10 -903 -6 -1039 18 -348 62 -540
169 -1111 623 -281 223 -466 338 -637 395 -96 32 -246 41 -338 20z m354 -577
c225 -56 390 -154 801 -478 509 -402 597 -431 1220 -415 397 11 583 8 719 -12
355 -52 582 -216 743 -539 68 -135 111 -259 204 -583 197 -687 241 -748 819
-1134 371 -248 494 -346 609 -487 260 -318 276 -641 61 -1231 -199 -544 -230
-661 -230 -855 0 -194 31 -311 230 -855 215 -590 199 -913 -61 -1231 -115
-141 -238 -239 -609 -487 -578 -386 -622 -447 -819 -1134 -46 -161 -101 -338
-121 -393 -201 -536 -492 -737 -1085 -748 -80 -1 -289 2 -465 7 -617 16 -707
-14 -1215 -415 -414 -326 -581 -425 -810 -481 -119 -29 -302 -29 -421 0 -231
57 -410 164 -854 516 -454 360 -566 396 -1170 380 -176 -5 -385 -8 -465 -7
-593 11 -884 212 -1085 748 -20 55 -75 233 -122 395 -196 684 -242 748 -809
1126 -383 255 -508 355 -628 506 -251 313 -264 632 -51 1218 137 379 167 468
198 590 28 111 31 141 31 265 0 204 -19 275 -229 855 -213 586 -200 905 51
1218 120 151 245 251 628 506 567 378 613 442 809 1126 47 162 102 340 122
395 171 458 407 665 831 731 88 13 162 16 389 13 587 -8 761 -4 865 18 194 42
343 127 675 389 255 201 329 255 450 329 279 169 534 218 794 154z"/>
<path d="M8100 12584 c-197 -40 -358 -135 -740 -439 -331 -262 -525 -378 -720
-429 -171 -45 -242 -51 -565 -46 -498 8 -725 5 -800 -8 -294 -53 -453 -193
-581 -511 -24 -60 -82 -241 -128 -402 -107 -371 -132 -444 -211 -604 -133
-271 -268 -398 -780 -738 -364 -241 -498 -364 -580 -530 -103 -208 -85 -393
81 -847 168 -455 216 -622 235 -816 26 -250 -19 -447 -235 -1034 -123 -337
-161 -517 -138 -670 36 -248 193 -419 678 -735 350 -229 545 -394 653 -554 54
-78 139 -257 181 -376 17 -49 69 -222 116 -384 46 -161 104 -342 128 -402 128
-318 287 -458 581 -511 75 -13 300 -16 800 -8 323 4 395 -1 565 -46 195 -51
389 -167 720 -429 353 -281 484 -362 675 -423 68 -22 262 -22 330 0 191 61
322 142 675 423 331 262 525 378 720 429 170 45 242 51 560 46 498 -8 730 -5
805 8 294 53 453 193 581 511 24 60 82 241 128 402 90 314 128 429 179 543 80
178 149 277 284 406 110 107 195 170 503 375 393 262 522 379 605 548 103 208
85 394 -82 847 -193 526 -237 695 -237 925 0 230 44 399 237 925 167 453 185
639 82 847 -82 166 -216 289 -580 530 -536 356 -674 492 -812 799 -51 116 -90
231 -179 542 -46 161 -104 342 -128 403 -128 318 -287 458 -581 511 -75 13
-302 16 -800 8 -323 -5 -394 1 -565 46 -173 45 -376 159 -605 339 -408 321
-484 376 -620 444 -126 62 -197 82 -310 86 -55 2 -111 1 -125 -1z m252 -638
c199 -38 364 -133 708 -406 189 -151 274 -210 376 -262 173 -89 297 -104 724
-88 437 18 618 -4 806 -95 66 -32 112 -63 167 -115 162 -151 245 -325 372
-779 110 -391 171 -519 312 -652 81 -76 147 -125 388 -286 252 -169 305 -209
413 -316 183 -180 254 -342 254 -577 0 -149 -25 -264 -103 -490 -159 -458
-189 -552 -203 -639 -35 -210 -25 -254 203 -911 79 -226 103 -342 103 -490 1
-175 -33 -289 -126 -428 -95 -142 -225 -254 -541 -465 -241 -161 -307 -209
-388 -286 -141 -133 -202 -261 -312 -652 -142 -507 -252 -712 -453 -845 -196
-131 -405 -164 -893 -144 -287 12 -442 6 -559 -22 -123 -28 -311 -143 -539
-327 -391 -316 -605 -421 -861 -421 -256 0 -470 105 -861 421 -228 184 -416
299 -539 327 -117 28 -272 34 -559 22 -433 -18 -620 4 -807 95 -152 74 -273
202 -367 391 -47 94 -95 235 -168 488 -75 265 -102 341 -151 441 -91 184 -169
255 -553 512 -316 211 -446 323 -541 465 -92 138 -126 253 -126 423 -1 149 22
259 97 477 35 100 92 269 128 373 63 183 97 331 97 420 0 89 -34 237 -97 420
-36 105 -93 273 -128 373 -75 218 -98 328 -97 477 0 170 34 285 126 423 93
140 225 255 526 455 400 267 476 337 568 522 49 100 76 176 151 441 73 253
121 394 168 488 94 189 215 317 367 391 188 91 369 113 806 95 312 -12 451 -6
573 26 126 32 295 136 526 323 314 254 512 368 701 406 88 18 223 18 312 1z"/>
<path d="M8145 11683 c-107 -15 -262 -87 -394 -181 -42 -30 -154 -116 -249
-191 -350 -275 -493 -350 -740 -386 -88 -13 -186 -16 -552 -13 -399 3 -452 1
-514 -15 -207 -53 -321 -165 -419 -413 -20 -49 -71 -209 -112 -354 -85 -295
-134 -428 -199 -543 -106 -186 -223 -292 -601 -547 -343 -231 -445 -321 -511
-452 -89 -175 -71 -315 96 -777 144 -398 172 -516 172 -706 0 -190 -30 -314
-178 -722 -97 -269 -132 -393 -140 -507 -12 -151 40 -279 166 -406 93 -95 140
-130 420 -318 349 -233 471 -346 576 -529 65 -115 114 -248 199 -543 109 -382
170 -521 269 -624 74 -75 158 -118 290 -149 35 -8 200 -12 536 -12 434 0 493
-2 565 -18 226 -52 353 -124 677 -378 298 -235 424 -314 563 -355 77 -22 193
-22 270 0 139 41 265 120 563 355 324 254 451 326 677 378 72 16 131 18 565
18 499 0 526 2 642 43 154 54 254 168 341 388 20 49 71 209 112 354 178 618
253 723 775 1072 124 83 252 171 285 196 93 71 207 192 242 259 99 184 84 324
-84 782 -142 391 -175 526 -175 716 0 190 33 325 175 716 163 447 181 593 93
767 -66 131 -168 221 -511 452 -380 256 -494 360 -601 547 -65 115 -114 248
-199 543 -41 145 -92 305 -112 354 -91 230 -194 341 -363 395 -125 39 -194 43
-615 36 -342 -6 -415 -5 -507 9 -249 38 -391 113 -740 387 -234 184 -310 238
-414 291 -127 66 -248 95 -339 81z m270 -631 c103 -41 232 -125 425 -277 196
-155 275 -208 375 -256 154 -74 150 -73 625 -74 373 -1 434 -3 500 -19 210
-50 340 -170 434 -399 20 -47 67 -193 105 -324 77 -264 94 -313 153 -425 72
-139 200 -256 473 -433 438 -284 558 -455 525 -747 -12 -107 -42 -211 -130
-453 -182 -500 -182 -580 0 -1080 120 -332 149 -468 130 -606 -30 -213 -155
-354 -525 -594 -273 -177 -401 -294 -473 -433 -59 -112 -76 -161 -153 -425
-38 -131 -85 -276 -104 -323 -95 -230 -226 -350 -435 -400 -66 -16 -127 -18
-500 -19 -475 -1 -471 0 -625 -74 -99 -47 -173 -98 -373 -255 -194 -153 -323
-237 -427 -279 -76 -30 -86 -32 -215 -32 -129 0 -139 2 -215 33 -103 41 -250
137 -436 284 -187 148 -265 202 -364 249 -154 74 -150 73 -625 74 -373 1 -434
3 -500 19 -209 50 -340 170 -435 400 -19 47 -66 192 -104 323 -77 264 -94 313
-153 425 -72 139 -201 257 -473 433 -437 283 -558 455 -525 747 12 107 42 211
130 453 182 500 182 580 0 1080 -120 332 -149 468 -130 606 30 213 155 354
525 594 273 177 401 294 473 433 59 112 76 161 153 425 38 131 85 277 105 324
94 229 224 349 434 399 66 16 127 18 500 19 475 1 471 0 625 74 100 48 178
101 375 256 333 263 449 318 660 312 101 -3 125 -8 195 -35z"/>
<path d="M6706 8919 c-157 -21 -328 -78 -439 -149 -93 -58 -198 -172 -241
-262 -50 -105 -67 -177 -73 -313 -14 -321 104 -550 364 -707 108 -66 242 -119
493 -194 368 -112 465 -160 527 -263 75 -125 42 -321 -68 -395 -75 -50 -130
-61 -319 -61 -159 0 -180 2 -232 23 -157 63 -217 139 -268 341 -7 24 -24 57
-40 73 l-28 28 -207 0 -207 0 -33 -33 c-46 -46 -51 -74 -32 -189 29 -172 101
-313 231 -446 232 -240 599 -343 1019 -287 144 19 242 47 362 104 170 81 282
186 355 336 55 110 71 179 77 325 12 282 -61 480 -239 645 -133 124 -286 196
-626 295 -382 111 -468 153 -529 258 -54 91 -30 239 49 306 53 46 111 64 237
77 277 28 422 -53 495 -278 11 -32 29 -62 47 -78 31 -25 31 -25 239 -25 l209
0 35 31 c45 39 53 78 37 183 -52 340 -325 586 -722 651 -103 16 -357 19 -473
4z"/>
<path d="M8391 8352 c-75 -38 -70 26 -74 -867 -3 -710 -5 -810 -21 -889 -79
-403 -275 -650 -601 -756 -199 -65 -286 -151 -284 -282 1 -116 51 -197 149
-247 56 -28 73 -31 149 -31 441 1 916 365 1093 837 63 170 61 146 67 783 6
546 7 583 22 560 9 -14 238 -416 509 -895 271 -478 508 -889 526 -911 55 -69
76 -74 291 -74 214 0 244 8 275 70 17 33 18 117 18 1323 0 1450 6 1342 -74
1378 -35 16 -66 19 -206 18 -182 0 -221 -8 -254 -52 -21 -28 -21 -35 -26 -870
l-5 -842 -469 840 c-258 462 -478 851 -490 864 -49 55 -81 61 -331 61 -199 0
-235 -2 -264 -18z"/>
</g>
</svg>
